<?xml version="1.0" encoding="UTF-8"?><svg id="a" xmlns="http://www.w3.org/2000/svg" width="456" height="105.71" viewBox="0 0 456 105.71"><rect x="193.51" y="90.38" width="3.14" height=".87" style="fill:#040000;"/><path d="m181.97,88.3c-.07-.34-.16-.54-.23-.68-.17-.31-.53-.78-1.39-.78-.28,0-.81.03-1.3.55-.4.43-.77,1.17-.77,2.48,0,.88.18,1.9.87,2.53.48.43,1,.46,1.23.46.17,0,.59-.01.98-.31.62-.49.68-1.4.7-1.58h1.1c-.01.27-.04,1.15-.55,1.89-.29.42-.92,1.05-2.18,1.05-.26,0-.88-.02-1.51-.33-.87-.43-1.91-1.48-1.91-3.7,0-1.93.74-2.95,1.41-3.46.78-.59,1.6-.63,1.95-.63,1.02,0,1.96.44,2.41,1.41.17.36.22.71.27,1.1h-1.08Z" style="fill:#040000;"/><path d="m186.72,86.34c.75-.51,1.5-.54,1.82-.54,1.18,0,1.9.55,2.22.88.53.51,1.15,1.48,1.15,3.18,0,.47-.02,2.51-1.62,3.55-.53.34-1.11.51-1.75.51-.28,0-.94-.03-1.61-.42-1.74-1-1.78-3.17-1.78-3.64.01-1.32.41-2.73,1.56-3.52m.1,5.42c.17.32.33.5.44.61.49.48,1.02.51,1.28.51.72,0,1.29-.37,1.64-.99.21-.36.46-1.03.46-2.03,0-.22.02-1.72-.83-2.53-.2-.19-.59-.49-1.27-.49-.17,0-.55.01-.93.24-1.21.71-1.17,2.59-1.17,2.77,0,.22,0,1.14.38,1.9" style="fill:#040000;"/><polygon points="203.09 89.19 203.09 90.24 199.94 90.24 199.94 92.73 203.47 92.73 203.47 93.78 198.73 93.78 198.73 85.94 203.37 85.94 203.37 86.97 199.94 86.97 199.94 89.19 203.09 89.19" style="fill:#040000;"/><polygon points="207.26 85.94 210.72 91.92 210.72 85.94 211.87 85.94 211.87 93.78 210.61 93.78 207.12 87.79 207.12 93.78 205.96 93.78 205.96 85.94 207.26 85.94" style="fill:#040000;"/><path d="m220.72,89.8v3.24c-.09.07-.33.23-.61.38-.32.16-1.12.5-2.14.5-1.4,0-2.17-.63-2.55-1.07-.42-.49-.94-1.44-.94-3.01,0-.44.01-2.55,1.62-3.56.29-.18.9-.49,1.76-.49.99,0,1.96.4,2.44,1.32.14.27.25.57.31,1.18h-1.08c-.06-.28-.19-1.09-1.04-1.35-.26-.09-.52-.1-.61-.1-.32,0-1.07.08-1.59.82-.42.61-.56,1.5-.56,2.21,0,1.42.51,3,2.24,3,.57,0,1.22-.2,1.71-.51v-1.6h-1.59v-.95h2.62Z" style="fill:#040000;"/><rect x="223.5" y="85.94" width="1.22" height="7.84" style="fill:#040000;"/><polygon points="229.08 85.94 232.54 91.92 232.54 85.94 233.69 85.94 233.69 93.78 232.43 93.78 228.94 87.79 228.94 93.78 227.78 93.78 227.78 85.94 229.08 85.94" style="fill:#040000;"/><polygon points="241.11 89.19 241.11 90.24 237.96 90.24 237.96 92.73 241.49 92.73 241.49 93.78 236.75 93.78 236.75 85.94 241.39 85.94 241.39 86.97 237.96 86.97 237.96 89.19 241.11 89.19" style="fill:#040000;"/><polygon points="248.35 89.19 248.35 90.24 245.19 90.24 245.19 92.73 248.72 92.73 248.72 93.78 243.98 93.78 243.98 85.94 248.62 85.94 248.62 86.97 245.19 86.97 245.19 89.19 248.35 89.19" style="fill:#040000;"/><path d="m252.9,85.94c.43,0,1.01,0,1.44.06.32.06,1.25.19,1.77,1.07.12.2.31.61.3,1.2,0,.19-.02.77-.34,1.27-.17.25-.39.47-.63.63-.22.14-.42.21-.51.26l1.93,3.36h-1.43l-1.79-3.16h-1.21v3.16h-1.21v-7.83h1.69Zm.7,3.63c.32-.02,1.56-.04,1.55-1.33,0-.63-.35-.93-.57-1.04-.44-.26-1.21-.21-1.68-.22h-.49v2.6h1.18Z" style="fill:#040000;"/><polygon points="263.45 89.19 263.45 90.24 260.3 90.24 260.3 92.73 263.83 92.73 263.83 93.78 259.09 93.78 259.09 85.94 263.73 85.94 263.73 86.97 260.3 86.97 260.3 89.19 263.45 89.19" style="fill:#040000;"/><path d="m268.55,85.94c1.28.04,1.88.3,2.36.68.57.43,1.43,1.44,1.42,3.24,0,1.1-.36,2.29-1.19,3.05-.95.89-2.2.87-3.38.87h-1.43v-7.83h2.22Zm-.37,6.79c.61,0,.89-.01,1.18-.09.54-.12,1.31-.49,1.61-1.75.11-.48.11-.87.11-1.04,0-1.13-.39-2.37-1.6-2.74-.41-.12-.78-.13-1.6-.13h-.34v5.76h.64Z" style="fill:#040000;"/><polygon points="279.62 85.94 281.13 92.32 282.66 85.94 283.7 85.94 285.25 92.32 286.77 85.94 287.89 85.94 285.93 93.8 284.58 93.8 283.17 88.22 281.77 93.8 280.42 93.8 278.48 85.94 279.62 85.94" style="fill:#040000;"/><rect x="290.12" y="85.94" width="1.22" height="7.84" style="fill:#040000;"/><polygon points="298.95 85.94 298.95 86.97 296.89 86.97 296.89 93.78 295.68 93.78 295.68 86.97 293.62 86.97 293.62 85.94 298.95 85.94" style="fill:#040000;"/><polygon points="305.82 89.18 305.82 85.94 307.03 85.94 307.03 93.78 305.82 93.78 305.82 90.19 302.45 90.19 302.45 93.78 301.23 93.78 301.23 85.94 302.45 85.94 302.45 89.18 305.82 89.18" style="fill:#040000;"/><path d="m330.53,105.71c8.71,0,15.78-7.06,15.78-15.78s-7.07-15.78-15.78-15.78-15.78,7.07-15.78,15.78,7.06,15.78,15.78,15.78Z" style="fill:#e60012;"/><path d="m343.08,90.83s-.41.3-.7.3c-.22,0-.34-.18-.34-.39,0-.46.72-2.71.72-2.71l-1.75.02-.09.3s-.25-.52-1.17-.52c-1.78,0-2.75,1.53-2.8,2.44,0,.2-.01.22-.01.22-.04.05-.67.76-1.44.76-.62,0-.72-.52-.72-.85,0-.36.3-1.78,1.14-1.78.46,0,.74.4.74.4l.25-.81s-.39-.3-1.19-.31c-1.72,0-2.89,1.29-2.94,2.45,0,.17-.02.23-.01.24-.06.07-.48.56-1.03.56-.38,0-.38-.29-.38-.42,0-.18.74-2.71.74-2.71l-1.94.03-.69,2.46s-1.07.77-2.55.88c-.77.05-1.03-.41-1.03-.69v-.11s.31.02.55.02c.18,0,2.45-.16,2.45-1.55,0-.79-.79-1.1-1.8-1.1-1.85,0-3.16,1.15-3.16,2.52,0,1.25,1.07,1.78,2.44,1.78,1.56,0,3.08-.95,3.08-.95,0,0,.08.95,1.31.95s2.26-.95,2.26-.95c0,0,.55.92,1.81.92s2.28-1.04,2.28-1.04c0,0,.35.98,1.62.98,1,0,1.53-.65,1.53-.65,0,0,.28.65,1.15.65,1.06,0,1.86-.75,1.86-.75l-.18-.61Zm-15.93-2.28c.26.02.44.2.43.39-.04,1.23-1.57,1.04-1.57,1.04,0,0,.25-1.49,1.14-1.44Zm12.22,2.72c-.48,0-.48-.53-.48-.68,0-.4.32-2,1.18-2,.37,0,.56.31.56.54,0,.05-.22,2.14-1.27,2.14Z" style="fill:#fff;"/><path d="m343.43,92.49s-4.08,1.42-11.88,1.33c-5.38-.07-9.47-1.65-9.47-1.65,0,0,.13-.26.22-.43.54-1.1,1.17-3.33,1.17-3.33,0,0,3.69-1.03,3.69-3.96,0-.93-.86-1.53-1.72-1.56-2.98-.12-3.8,4.13-3.99,4.85-.01.05-.02.07-.02.07-.92-.13-1.44-.31-1.44-.31l-.21.57c.62.29,1.52.39,1.52.39-.18,1.14-1.06,3.29-1.06,3.29,0,0-.82-.27-1.83-.27-1.31,0-1.76.62-1.8,1.02-.09,1.01,1.19,1.49,2.08,1.49,1.74,0,2.64-.94,2.64-.94,0,0,4.88,1.84,9.97,1.84,6.66,0,12.29-1.77,12.29-1.77l-.18-.61Zm-17.84-8.77c.57,0,.76.46.71.88-.28,2.45-2.71,3.01-2.71,3.01,0,0,.6-3.89,2-3.89Zm-7.25,9.46c-.49.02-.81-.31-.81-.49,0-.4.5-.47.81-.45.76.04,1.42.3,1.42.3,0,0-.77.62-1.42.64Z" style="fill:#fff;"/><path d="m331.5,85.74c-.62,0-1.08.25-1.08.83s.53.75,1.08.75,1.05-.26,1.05-.86-.6-.72-1.05-.72Z" style="fill:#fff;"/><path d="m87.73,42.09c-3.56,0-7.12.45-9.38,2.67-2.25,2.22-3.12,5.55-3.12,9.63s.78,7.35,3.03,9.57c2.25,2.21,5.91,2.75,9.46,2.75s7.1-.45,9.36-2.67c2.25-2.21,3.14-5.57,3.14-9.65s-.79-7.33-3.04-9.55c-2.25-2.22-5.9-2.74-9.46-2.74Zm5.4,18.18c-1.25,1.43-3.52,1.69-5.4,1.69s-4.14-.25-5.39-1.68c-1.26-1.43-1.34-3.4-1.34-5.89s.08-4.4,1.33-5.84c1.25-1.43,3.27-1.68,5.4-1.68s4.15.25,5.4,1.68c1.25,1.43,1.33,3.35,1.33,5.84s-.08,4.45-1.33,5.89Zm-54.72-17.74h-5.04c-.22,0-.39.17-.39.38v22.99c0,.21.18.38.39.38h5.04c.21,0,.39-.17.39-.38v-22.99c0-.21-.18-.38-.39-.38Zm-21.18,11.68l8.95-11.08c.19-.24.02-.6-.29-.6h-6.45c-.15,0-.3.07-.39.19l-5.91,7.84-5.77-7.83c-.09-.13-.24-.2-.39-.2H.5c-.31,0-.48.36-.29.6l9.06,11.29L.2,65.68c-.19.24-.01.59.29.59h6.47c.16,0,.31-.08.4-.2l6.04-7.81,5.72,7.81c.09.13.24.2.4.2h6.39c.31,0,.48-.35.29-.59l-8.97-11.48Zm122.7-9.93c-2.05-1.91-5.35-2.14-8.01-2.14-3.44,0-5.64.73-6.97,1.42h-.92c-1.3-.72-3.6-1.42-7.2-1.42-2.67,0-5.94.2-7.95,1.89-1.67,1.4-2.05,3.26-2.05,7.09v14.77c0,.21.18.38.39.38h5.04c.22,0,.39-.17.39-.38v-.05s0-9.34,0-12.11c0-2.19-.09-4.48.39-5.33.37-.66.95-1.4,3.68-1.4,3.26,0,4.03.23,4.55,1.67.12.34.18.83.21,1.42v15.8c0,.21.18.38.39.38h5.04c.21,0,.39-.17.39-.38v-15.8c.03-.59.09-1.08.21-1.42.51-1.44,1.28-1.67,4.55-1.67,2.74,0,3.31.74,3.68,1.4.47.85.39,3.14.39,5.33,0,2.77,0,12.11,0,12.11v.05c0,.21.18.38.39.38h5.04c.21,0,.39-.17.39-.38v-13.87c0-3.97-.13-6-1.99-7.74Zm-72.31,1.41c-2.33-3.21-6.54-4.18-10.9-3.95-4.43.24-7.51,1.18-8.3,1.47-.49.19-.43.61-.43.86-.02.85-.08,3.04-.08,3.93,0,.39.48.58.89.43,1.62-.57,4.59-1.48,6.99-1.68,2.59-.21,6.1,0,7.07,1.47.46.7.49,1.77.54,2.86-1.61-.15-4-.35-6.38-.22-1.85.1-5.39.25-7.48,1.37-1.7.9-2.69,1.72-3.22,3.25-.43,1.23-.54,2.71-.41,3.91.31,2.75,1.26,4.12,2.55,5.07,2.04,1.51,4.6,2.3,9.91,2.18,7.07-.15,8.92-2.44,9.86-4.06,1.6-2.76,1.32-7.12,1.27-9.79-.02-1.11-.18-4.76-1.89-7.1Zm-4.6,14.5c-.67,1.4-3.04,1.62-4.45,1.68-2.6.12-4.52.01-5.76-.6-.82-.41-1.42-1.34-1.48-2.4-.05-.9-.03-1.36.38-1.9.91-1.19,3.31-1.45,5.77-1.54,1.66-.06,4.2.12,6.06.35-.01,1.8-.13,3.61-.51,4.4Zm92.34-17.65h-5.04c-.22,0-.39.17-.39.38v22.99c0,.21.18.38.39.38h5.04c.21,0,.39-.17.39-.38v-22.99c0-.21-.18-.38-.39-.38Z" style="fill:#040000;"/><path d="m174.94,66.33v-18.95l-5.1,2.63v-4.39l5.9-3.01h3.43v23.72h-4.23Z" style="fill:#040000;"/><path d="m187.63,59.7c.56,1.07,1.21,1.88,1.96,2.42.75.55,1.66.82,2.72.82.79,0,1.5-.16,2.12-.48s1.1-.79,1.44-1.39c.34-.61.51-1.31.51-2.1s-.17-1.49-.51-2.08c-.34-.6-.82-1.06-1.44-1.38s-1.35-.48-2.18-.48-1.52.18-2.18.54c-.66.36-1.21.9-1.64,1.6l-3.56-1.64.96-12.92h13.53v3.85h-9.59l-.55,6.41-.87.06c.58-.56,1.29-.98,2.13-1.28.84-.3,1.72-.45,2.61-.45,1.52,0,2.84.32,3.97.95,1.13.63,2,1.52,2.61,2.68.61,1.15.91,2.49.91,4.01,0,1.6-.34,3-1.03,4.18-.68,1.19-1.66,2.11-2.92,2.76-1.26.65-2.75.98-4.46.98-1.9,0-3.54-.43-4.92-1.28-1.38-.85-2.39-2.02-3.03-3.49l3.37-2.28Z" style="fill:#040000;"/><path d="m222.94,66.72c-2.07,0-3.91-.46-5.5-1.38-1.59-.92-2.79-2.16-3.61-3.72l3.33-2.24c.66,1.18,1.48,2.05,2.45,2.63.97.58,2.09.87,3.35.87.9,0,1.69-.13,2.39-.38.69-.26,1.23-.61,1.6-1.07.37-.46.56-.98.56-1.55s-.16-1.11-.48-1.52c-.32-.42-.85-.8-1.59-1.14-.74-.34-1.78-.69-3.13-1.06l-.16-.03c-1.56-.43-2.86-.87-3.89-1.33-1.04-.46-1.93-1.15-2.68-2.08s-1.12-2.13-1.12-3.61c0-1.35.37-2.55,1.12-3.61.75-1.06,1.78-1.88,3.11-2.47,1.32-.59,2.82-.88,4.49-.88,2.01,0,3.72.43,5.15,1.3,1.42.87,2.53,2.01,3.32,3.45l-3.24,2.15c-.6-.96-1.36-1.72-2.28-2.26-.92-.54-1.92-.82-3.01-.82-.81,0-1.55.13-2.21.38-.66.26-1.19.61-1.57,1.07-.38.46-.58.97-.58,1.52,0,.68.19,1.24.58,1.67.38.43.94.79,1.67,1.07.73.29,1.72.6,2.98.95,1.56.41,2.88.84,3.96,1.31,1.08.47,2,1.17,2.76,2.1.76.93,1.14,2.14,1.14,3.64,0,1.41-.37,2.64-1.12,3.7s-1.8,1.88-3.14,2.47c-1.35.59-2.9.88-4.65.88Z" style="fill:#040000;"/><path d="m242.85,66.78c-1.73,0-3.24-.37-4.52-1.12s-2.27-1.81-2.97-3.17c-.69-1.37-1.04-2.98-1.04-4.84s.33-3.53.99-4.94c.66-1.41,1.62-2.49,2.87-3.25,1.25-.76,2.7-1.14,4.34-1.14,1.56,0,2.93.32,4.1.96,1.18.64,2.08,1.56,2.72,2.76.64,1.2.96,2.59.96,4.17,0,.92-.11,1.82-.32,2.69h-13.21l.1-3.3h9.26c0-.79-.13-1.47-.4-2.04-.27-.57-.67-1.01-1.22-1.33s-1.21-.48-2-.48c-.88,0-1.62.23-2.23.69-.61.46-1.06,1.13-1.36,2.02-.3.89-.45,1.98-.45,3.29,0,1.13.17,2.11.5,2.92.33.81.82,1.44,1.47,1.89.65.45,1.46.67,2.42.67.79,0,1.51-.2,2.15-.61.64-.41,1.19-1.01,1.64-1.83l3.08,2.12c-.6,1.15-1.49,2.09-2.66,2.8-1.18.72-2.59,1.07-4.23,1.07Z" style="fill:#040000;"/><path d="m253.49,66.33v-17.57h4.07v3.24h.16c.64-1.18,1.51-2.08,2.6-2.72s2.39-.96,3.91-.96h.19v4.1h-.29c-1.47,0-2.7.19-3.67.56-.97.37-1.7.92-2.18,1.64-.48.72-.72,1.55-.72,2.52v9.2h-4.07Z" style="fill:#040000;"/><path d="m271.76,43.63c0,.75-.23,1.35-.69,1.8s-1.07.67-1.84.67-1.37-.22-1.81-.67c-.44-.45-.66-1.05-.66-1.8s.22-1.38.67-1.84c.45-.46,1.05-.69,1.8-.69s1.38.23,1.84.69c.46.46.69,1.07.69,1.84Zm-.48,22.7h-4.04v-17.57h4.04v17.57Z" style="fill:#040000;"/><path d="m283.36,66.78c-1.73,0-3.24-.37-4.52-1.12-1.28-.75-2.27-1.81-2.97-3.17-.7-1.37-1.04-2.98-1.04-4.84s.33-3.53.99-4.94c.66-1.41,1.62-2.49,2.87-3.25,1.25-.76,2.7-1.14,4.34-1.14,1.56,0,2.93.32,4.1.96s2.08,1.56,2.72,2.76c.64,1.2.96,2.59.96,4.17,0,.92-.11,1.82-.32,2.69h-13.21l.1-3.3h9.26c0-.79-.13-1.47-.4-2.04-.27-.57-.67-1.01-1.22-1.33s-1.21-.48-2-.48c-.88,0-1.62.23-2.23.69-.61.46-1.06,1.13-1.36,2.02-.3.89-.45,1.98-.45,3.29,0,1.13.17,2.11.5,2.92.33.81.82,1.44,1.47,1.89.65.45,1.46.67,2.42.67.79,0,1.51-.2,2.15-.61.64-.41,1.19-1.01,1.63-1.83l3.08,2.12c-.6,1.15-1.49,2.09-2.66,2.8-1.18.72-2.59,1.07-4.23,1.07Z" style="fill:#040000;"/><path d="m300.26,66.78c-1.77,0-3.31-.36-4.6-1.09-1.29-.73-2.24-1.7-2.84-2.92l3.05-2.12c.51.88,1.14,1.54,1.89,2,.75.46,1.58.69,2.5.69s1.59-.17,2.07-.5c.48-.33.72-.76.72-1.3,0-.58-.27-1.05-.8-1.41-.53-.36-1.36-.67-2.47-.93-2.07-.47-3.67-1.15-4.78-2.05-1.11-.9-1.67-2.07-1.67-3.53,0-1.6.62-2.89,1.86-3.86,1.24-.97,2.88-1.46,4.94-1.46,1.56,0,2.92.33,4.09.99,1.16.66,2.08,1.57,2.74,2.72l-3.05,2.08c-.47-.75-1.03-1.33-1.67-1.75s-1.34-.63-2.08-.63c-.83,0-1.49.16-1.96.48-.47.32-.7.76-.7,1.31,0,.51.28.96.85,1.33.57.37,1.5.71,2.81,1.01,1.97.43,3.46,1.09,4.49,1.99s1.54,2.02,1.54,3.37c0,1.09-.29,2.06-.87,2.9-.58.84-1.39,1.5-2.45,1.96-1.06.46-2.26.69-3.61.69Z" style="fill:#040000;"/><path d="m141.92,28.58H14.29c-4.3,0-8.17-1.9-10.79-4.91-2.18-2.51-3.51-5.79-3.51-9.38h0c0-3.48,1.25-6.68,3.32-9.16C5.94,2,9.88,0,14.29,0h127.63c4.38,0,8.29,1.97,10.91,5.06,2.11,2.49,3.38,5.71,3.38,9.23h0c0,3.83-1.51,7.31-3.96,9.87-2.6,2.72-6.27,4.42-10.33,4.42Z" style="fill:#040000;"/><path d="m110.54,15.38c.19-1.22,1.09-2.06,2.43-2.06s2.18.84,2.31,2.06h-4.74Zm-2.28.87c0,3.28,2.25,4.99,4.71,4.99,1.81,0,3.37-.75,4.24-2.28l-1.75-1.19c-.5,1.06-1.34,1.5-2.37,1.5-1.31,0-2.5-.87-2.56-2.21h6.77s.12-.41.12-1.06c0-2.56-1.62-4.71-4.46-4.71-3.21,0-4.71,2.68-4.71,4.96m-8.33.09c0-1.81.97-2.99,2.59-2.99,1.53,0,2.53,1.19,2.53,3.03,0,1.68-1.03,2.84-2.59,2.84s-2.53-1.15-2.53-2.87m-2.25,9.2h2.28v-5.27h.06c.91.66,1.87.97,2.84.97,2.37,0,4.55-1.84,4.55-4.99s-1.78-4.96-4.46-4.96c-1.19,0-2.21.47-2.93,1.19h-.06v-.9h-2.28v13.98Zm-12.1-13.98l4.71,9.08-2.25,4.9h2.43l6.46-13.98h-2.46l-2.99,6.55-3.37-6.55h-2.53Zm-11.48,9.42h2.28v-5.68h6.36v5.68h2.28V7.7h-2.28v5.46h-6.36v-5.46h-2.28v13.29Zm-8.17,0h2.15v-9.42h-2.15v9.42Zm-.28-12.1c0-.75.66-1.37,1.34-1.37.81,0,1.37.62,1.37,1.37s-.56,1.34-1.37,1.34c-.69,0-1.34-.62-1.34-1.34m-14.79,12.1v-9.42h2.15v1.15h.09c.53-.87,1.59-1.43,2.68-1.43,1.53,0,2.28.94,2.56,1.62h.09c.41-.69,1.4-1.62,3.15-1.62,2.12,0,3.12,1.65,3.12,3.77v5.93h-2.15v-5.52c0-1.12-.59-2.15-1.68-2.15-1.37,0-2.06,1.06-2.06,2.31v5.37h-2.12v-5.52c0-1.06-.5-2.15-1.65-2.15-1.28,0-2.03,1.03-2.03,2.31v5.37h-2.15Zm-7.8-4.62c0,1.53.56,3.06,2.28,3.06,1.62,0,2.34-1.47,2.34-3.06,0-1.93-.72-3.28-2.34-3.28-1.5,0-2.28,1.15-2.28,3.28m-2.18,0c0-3.53,2.21-5.08,4.46-5.08,2.59,0,4.46,1.81,4.46,5.08,0,2.78-1.65,4.87-4.46,4.87-2.56,0-4.46-1.93-4.46-4.87m-6.93,2c0,.78.75,1.06,1.5,1.06,1.28,0,2.28-.69,2.28-2.18v-.34h-.97c-1.22,0-2.81.25-2.81,1.47m-2.15.16c0-2.28,1.97-3.37,4.52-3.37h1.4v-.28c0-1.28-.97-1.78-1.93-1.78-.9,0-1.53.44-2,1.09l-1.5-1.09c1-1.31,2.03-1.81,3.65-1.81,2.18,0,3.87,1.31,3.87,3.59v6.11h-2.09v-.81h-.06c-.47.65-1.59,1.06-2.71,1.06-1.78,0-3.15-1-3.15-2.71m-3.56,2.46h2.15v-9.42h-2.15v9.42Zm-.28-12.1c0-.75.66-1.37,1.37-1.37.78,0,1.34.62,1.34,1.37s-.56,1.34-1.34,1.34c-.72,0-1.37-.62-1.37-1.34m-13.01,12.1h2.53l3.4-4.87,3.37,4.87h2.53l-4.65-6.68,4.62-6.61h-2.56l-3.31,4.77-3.34-4.77h-2.56l4.62,6.61-4.65,6.68Zm105.79-4.71v4.71h-2.25v-9.42h2.25v1.47h.06c.81-1.37,2-1.75,3.65-1.75h.37v2.21h-.37c-2.62,0-3.71.94-3.71,2.78" style="fill:#fff;"/><rect x="138.99" y="7.52" width="2.27" height="13.48" style="fill:#fff;"/><path d="m130.24,7.52l-5.02,13.48h2.48l1.01-2.86h5.37l1,2.86h2.5l-5.04-13.48h-2.3Zm-.78,8.47l1.94-5.51,1.93,5.51h-3.87Z" style="fill:#fff;"/></svg>